<?xml version="1.0"?>

<!DOCTYPE svg PUBLIC '-//W3C//DTD SVG 1.0//EN' 'http://www.w3.org/TR/2001/REC-SVG-20010904/DTD/svg10.dtd'>
<svg fill-opacity="1" xmlns:xlink="http://www.w3.org/1999/xlink" color-rendering="auto" color-interpolation="auto" text-rendering="auto" stroke="black" stroke-linecap="square" stroke-miterlimit="10" shape-rendering="auto" stroke-opacity="1" fill="black" stroke-dasharray="none" font-weight="normal" stroke-width="1" xmlns="http://www.w3.org/2000/svg" font-family="&apos;Dialog&apos;" font-style="normal" stroke-linejoin="miter" font-size="12" stroke-dashoffset="0" image-rendering="auto" viewBox="-50 0 400 300">
  <!--Unicode Character 'EYE' (U+1F441)-->
  <defs id="genericDefs" />
  <g>
    <g>
      <path d="M283.9219 194.9062 Q262.8281 233.0156 225.1406 253.125 Q189.1406 272.3906 144.1406 272.3906 Q99 272.3906 63.1406 253.125 Q25.4531 233.0156 4.0781 194.9062 Q25.5938 156.5156 63 136.4062 Q98.8594 117.2812 144.1406 117.2812 Q189.4219 117.2812 225.1406 136.5469 Q262.6875 156.6562 283.9219 194.9062 ZM257.3438 194.9062 Q229.7812 146.5312 170.4375 136.6875 Q188.1562 144.2812 198.7031 159.9609 Q209.25 175.6406 209.25 194.9062 Q209.25 213.75 198.8438 229.5 Q188.4375 245.25 171.1406 252.9844 Q230.0625 243 257.3438 194.9062 ZM195.75 194.9062 Q195.75 173.6719 180.4922 158.9766 Q165.2344 144.2812 144 144.2812 Q132.8906 144.2812 122.625 148.9219 L117.2812 136.6875 Q58.0781 146.8125 30.6562 194.9062 Q57.9375 242.8594 116.7188 252.9844 Q99.4219 245.25 89.0859 229.5703 Q78.75 213.8906 78.75 194.9062 Q78.75 183.375 82.8281 172.4062 L95.9062 176.4844 Q92.25 185.625 92.25 194.9062 Q92.25 216.1406 107.4375 230.8359 Q122.625 245.5312 144 245.5312 Q165.375 245.5312 180.5625 230.8359 Q195.75 216.1406 195.75 194.9062 ZM183.0938 194.9062 Q183.0938 210.9375 171.5625 222.1172 Q160.0312 233.2969 144 233.2969 Q127.8281 233.2969 116.3672 222.1875 Q104.9062 211.0781 104.9062 194.9062 Q104.9062 187.7344 107.2969 181.4062 L147.2344 199.5469 L128.5312 159.8906 Q136.125 156.5156 144 156.5156 Q160.0312 156.5156 171.5625 167.6953 Q183.0938 178.875 183.0938 194.9062 Z" stroke="none" />
    </g>
  </g>
</svg>
